<svg xmlns="http://www.w3.org/2000/svg" version="1.1" xmlns:xlink="http://www.w3.org/1999/xlink" xmlns:svgjs="http://svgjs.dev/svgjs" width="1440" height="892" preserveAspectRatio="none" viewBox="0 0 1440 892"><g mask="url(&quot;#SvgjsMask1050&quot;)" fill="none"><rect width="1440" height="892" x="0" y="0" fill="rgba(162, 155, 254, 1)"></rect><path d="M0,675.514C123.923,663.453,187.006,521.07,294.575,458.368C409.285,391.504,601.495,420.43,649.794,296.751C698.988,170.78,549.115,54.529,501.749,-72.141C466.468,-166.493,451.869,-262.467,406.966,-352.638C348.282,-470.483,325.259,-640.491,199.438,-679.223C74.019,-717.831,-39.649,-589.296,-154.274,-525.408C-244.494,-475.122,-328.761,-421.466,-398.955,-345.696C-471.219,-267.691,-545.384,-185.712,-565.669,-81.331C-586.409,25.394,-550.663,132.173,-511.533,233.609C-470.315,340.46,-420.548,444.664,-333.883,519.532C-239.004,601.496,-124.79,687.659,0,675.514" fill="#574afd"></path><path d="M1440 1272.248C1519.554 1270.309 1601.988 1290.358 1673.258 1254.9560000000001 1747.962 1217.848 1806.54 1151.049 1838.825 1074.137 1870.616 998.403 1868.018 913.216 1850.383 832.996 1833.607 756.683 1800.487 681.953 1741.376 630.856 1685.842 582.85 1609.189 574.74 1536.895 562.0070000000001 1471.827 550.547 1408.518 554.8340000000001 1342.703 560.6379999999999 1260.463 567.8910000000001 1162.655 542.863 1103.297 600.245 1044.3020000000001 657.2760000000001 1063.035 755.094 1056.908 836.92 1051.193 913.234 1044.672 988.902 1068.753 1061.5430000000001 1094.77 1140.024 1127.411 1225.6970000000001 1199.318 1266.509 1270.5529999999999 1306.939 1358.115 1274.2440000000001 1440 1272.248" fill="#edecff"></path></g><defs><mask id="SvgjsMask1050"><rect width="1440" height="892" fill="#ffffff"></rect></mask></defs></svg>